Coordinates
version=1
nRows=12
nColumns=63
inDegrees=yes

Units are S.I. units (second, meters, Newtons, ...)
If the header above contains a line with 'inDegrees', this indicates whether rotational values are in degrees (yes) or radians (no).

endheader
time	pelvis_tilt	pelvis_list	pelvis_rotation	pelvis_tx	pelvis_ty	pelvis_tz	hip_flexion_r	hip_adduction_r	hip_rotation_r	knee_angle_r	knee_angle_r_beta	ankle_angle_r	subtalar_angle_r	mtp_angle_r	hip_flexion_l	hip_adduction_l	hip_rotation_l	knee_angle_l	knee_angle_l_beta	ankle_angle_l	subtalar_angle_l	mtp_angle_l	L5_S1_Flex_Ext	L5_S1_Lat_Bending	L5_S1_axial_rotation	L4_L5_Flex_Ext	L4_L5_Lat_Bending	L4_L5_axial_rotation	L3_L4_Flex_Ext	L3_L4_Lat_Bending	L3_L4_axial_rotation	L2_L3_Flex_Ext	L2_L3_Lat_Bending	L2_L3_axial_rotation	L1_L2_Flex_Ext	L1_L2_Lat_Bending	L1_L2_axial_rotation	L1_T12_Flex_Ext	L1_T12_Lat_Bending	L1_T12_axial_rotation	Abs_r3	Abs_r2	Abs_r1	Abs_t1	Abs_t2	neck_flexion	neck_bending	neck_rotation	arm_flex_r	arm_add_r	arm_rot_r	elbow_flex_r	pro_sup_r	wrist_flex_r	wrist_dev_r	arm_flex_l	arm_add_l	arm_rot_l	elbow_flex_l	pro_sup_l	wrist_flex_l	wrist_dev_l
2.133333	1.774779	3.505285	60.094397	0.255834	0.775231	0.691956	-1.477570	-0.458693	16.049252	10.422642	0.181909	21.283400	15.587701	0.000000	-9.510668	0.062372	-15.498843	3.273603	0.057135	15.677076	-15.375895	0.000000	0.102565	-0.309458	-4.305629	0.190473	-0.411579	-4.574731	0.168503	-0.752417	-4.574731	0.117221	-0.752417	-3.767425	0.095242	-0.631047	-3.498323	0.058605	-0.479351	-3.229222	0.732609	-3.500653	-23.946616	0.000000	0.000000	6.253898	11.376347	13.210340	162.545118	-45.183506	40.123441	140.092387	91.763620	-22.271913	1.790673	182.924053	-28.343219	41.574702	136.899545	70.579464	-17.825336	19.519988
2.150000	1.600448	3.316180	60.262366	0.256401	0.774327	0.691852	-1.164353	-0.454289	15.967842	10.641720	0.185733	21.500180	15.502402	0.000000	-9.230485	0.043893	-15.310801	3.353553	0.058531	15.581699	-15.539870	0.000000	0.127635	-0.332996	-4.023736	0.237031	-0.442884	-4.275220	0.209691	-0.809646	-4.275220	0.145874	-0.809646	-3.520769	0.118522	-0.679045	-3.269286	0.072931	-0.515810	-3.017802	0.911683	-3.766914	-22.378814	0.000000	0.000000	7.690995	12.478537	11.294029	165.145396	-46.409062	46.351162	141.831917	89.854261	-34.558973	-4.190498	180.909134	-29.678833	39.025018	140.105741	71.589165	-18.547675	21.536409
2.166667	1.415135	3.112453	60.378540	0.257055	0.773375	0.691766	-0.802684	-0.447256	15.922649	10.918423	0.190562	21.746578	15.425691	0.000000	-8.939181	0.035052	-15.146095	3.441055	0.060058	15.446304	-15.760142	0.000000	0.152777	-0.352457	-3.689728	0.283722	-0.468768	-3.920336	0.250998	-0.856964	-3.920336	0.174609	-0.856964	-3.228512	0.141869	-0.718730	-2.997904	0.087297	-0.545956	-2.767296	1.091272	-3.987064	-20.521159	0.000000	0.000000	9.190290	13.303152	9.456657	168.582625	-47.525694	53.109650	143.334819	89.768953	-45.976163	-10.244932	178.789846	-30.750892	36.268967	142.820604	72.871845	-19.357701	23.214787
2.183333	1.179812	2.897079	60.453722	0.257854	0.772352	0.691711	-0.376156	-0.471439	15.894357	11.252630	0.196395	22.038866	15.377842	0.000000	-8.617593	0.065685	-15.016475	3.532196	0.061648	15.298754	-15.987146	0.000000	0.178896	-0.377305	-3.283119	0.332227	-0.501816	-3.488314	0.293908	-0.917380	-3.488314	0.204460	-0.917380	-2.872729	0.166123	-0.769401	-2.667534	0.102221	-0.584446	-2.462339	1.277834	-4.268151	-18.259721	0.000000	0.000000	10.785416	13.884076	7.248309	173.350542	-48.673743	60.687456	144.571712	89.777276	-56.557597	-15.895419	176.539337	-31.400567	33.243468	144.986438	74.372598	-20.196510	24.308399
2.200000	0.898565	2.681028	60.496856	0.258802	0.771270	0.691715	0.106636	-0.526664	15.873784	11.650406	0.203338	22.376871	15.352792	0.000000	-8.277093	0.134336	-14.931549	3.618047	0.063147	15.174804	-16.167731	0.000000	0.203565	-0.411394	-2.817897	0.378041	-0.547155	-2.994016	0.334437	-1.000264	-2.994016	0.232655	-1.000264	-2.465660	0.189031	-0.838915	-2.289541	0.116317	-0.637250	-2.113423	1.454046	-4.653776	-15.672298	0.000000	0.000000	12.466636	14.351278	4.560179	179.272710	-50.103902	68.592144	145.576445	89.795928	-65.752445	-20.829411	174.272502	-31.544922	30.074627	146.554741	75.980744	-21.027127	24.666747
2.216667	0.607240	2.485926	60.494862	0.259831	0.770156	0.691764	0.604779	-0.596536	15.867579	12.102739	0.211233	22.754928	15.348344	0.000000	-7.960176	0.227945	-14.901316	3.684484	0.064306	15.103773	-16.288932	0.000000	0.225933	-0.452457	-2.358978	0.419580	-0.601767	-2.506414	0.371185	-1.100103	-2.506414	0.258219	-1.100103	-2.064106	0.209801	-0.922650	-1.916670	0.129098	-0.700855	-1.769233	1.613816	-5.118280	-13.119927	0.000000	0.000000	14.013788	14.856666	1.738239	184.852274	-51.786406	75.078734	146.424588	89.821619	-72.861979	-25.109084	172.426417	-31.216793	27.222843	147.449277	77.412226	-21.864677	24.154030
2.233333	0.393489	2.321327	60.414130	0.260766	0.769129	0.691827	1.059309	-0.623198	15.898794	12.587987	0.219702	23.129771	15.379260	0.000000	-7.727952	0.293552	-14.937930	3.718932	0.064908	15.103445	-16.372201	0.000000	0.243865	-0.487096	-2.003309	0.452882	-0.647838	-2.128516	0.400646	-1.184326	-2.128516	0.278714	-1.184326	-1.752895	0.226453	-0.993287	-1.627688	0.139345	-0.754512	-1.502482	1.741906	-5.510129	-11.141802	0.000000	0.000000	15.082145	15.323157	-0.474360	188.806254	-53.091366	78.699967	147.212979	89.845958	-77.578014	-28.946785	171.599761	-30.483699	25.296073	147.696849	78.493593	-22.741517	22.816221
2.250000	0.261033	2.205065	60.272828	0.261505	0.768284	0.691936	1.447341	-0.617303	15.944157	13.088909	0.228445	23.462903	15.437253	0.000000	-7.590527	0.338755	-15.036125	3.720118	0.064928	15.152912	-16.405081	0.000000	0.256576	-0.514270	-1.782489	0.476488	-0.683978	-1.893894	0.421529	-1.250395	-1.893894	0.293241	-1.250395	-1.559678	0.238257	-1.048698	-1.448272	0.146608	-0.796603	-1.336867	1.832700	-5.817520	-9.913669	0.000000	0.000000	15.577279	15.720711	-1.856108	190.934480	-53.916604	78.779262	147.940954	89.867767	-79.168248	-31.354724	171.917931	-29.512830	24.499736	147.517542	79.212064	-23.630117	20.824302
2.266667	0.223973	2.139873	60.086600	0.261981	0.767691	0.692077	1.752338	-0.573012	15.981623	13.589843	0.237188	23.730847	15.529191	0.000000	-7.551622	0.352425	-15.174160	3.695333	0.064496	15.240160	-16.404960	0.000000	0.263245	-0.531189	-1.690231	0.488872	-0.706481	-1.795871	0.432485	-1.291533	-1.795871	0.300862	-1.291533	-1.478952	0.244449	-1.083201	-1.373313	0.150418	-0.822812	-1.267673	1.880330	-6.008917	-9.400559	0.000000	0.000000	15.459518	16.014944	-2.386350	191.484921	-54.416809	75.500077	148.495845	89.878232	-77.657826	-31.766970	173.258608	-28.548505	24.742964	147.214247	79.802322	-24.441994	18.559708
2.283333	0.266191	2.157385	59.876481	0.262224	0.767448	0.692354	1.956482	-0.516511	15.994811	14.088818	0.245896	23.918243	15.649495	0.000000	-7.616142	0.352930	-15.342566	3.664782	0.063963	15.330942	-16.365852	0.000000	0.262416	-0.544385	-1.731049	0.487332	-0.724033	-1.839240	0.431123	-1.323619	-1.839240	0.299915	-1.323619	-1.514668	0.243679	-1.110111	-1.406477	0.149944	-0.843253	-1.298287	1.874408	-6.158197	-9.627576	0.000000	0.000000	14.708111	16.227104	-2.120593	190.211658	-54.620673	68.597404	149.021804	89.882534	-72.888061	-29.209241	175.539012	-27.769822	26.009086	146.975907	80.248820	-25.140495	16.273487
2.300000	0.282001	2.258781	59.699760	0.262418	0.767525	0.692821	2.102903	-0.530322	15.941420	14.582420	0.254511	24.036068	15.787793	0.000000	-7.724313	0.411298	-15.501038	3.639442	0.063520	15.373114	-16.286105	0.000000	0.256395	-0.563908	-1.847851	0.476151	-0.749998	-1.963342	0.421231	-1.371087	-1.963342	0.293034	-1.371087	-1.616870	0.238088	-1.149922	-1.501379	0.146504	-0.873494	-1.385888	1.831404	-6.379045	-10.277194	0.000000	0.000000	13.544324	16.374122	-1.304592	187.654171	-54.801510	58.851650	149.700947	94.726945	-69.470262	-26.194335	178.237918	-27.400482	27.592695	146.956234	80.986604	-25.415075	14.465899
2.316667	0.373513	2.475854	59.518319	0.262364	0.767920	0.693432	2.108533	-0.554849	15.846349	15.055806	0.262773	24.087806	15.960306	0.000000	-7.963394	0.471099	-15.678575	3.619424	0.063171	15.403229	-16.186035	0.000000	0.239094	-0.574789	-2.131148	0.444022	-0.764470	-2.264345	0.392808	-1.397543	-2.264345	0.273261	-1.397543	-1.864755	0.222023	-1.172110	-1.731558	0.136618	-0.890349	-1.598361	1.707826	-6.502132	-11.852808	0.000000	0.000000	11.774248	16.348238	0.796464	183.684181	-54.377033	48.091459	149.703083	96.816233	-68.484230	-24.764741	182.139559	-27.938746	30.236464	147.124502	81.475069	-25.396720	13.292438
